{"accessors" : [{"bufferView" : 0, "byteOffset" : 0, "componentType" : 5123, "count" : 36, "type" : "SCALAR", "max" : [35], "min" : [0]}, {"bufferView" : 1, "byteOffset" : 0, "componentType" : 5126, "count" : 36, "type" : "VEC3", "max" : [50, 50, 50], "min" : [-50, -50, -50], "name" : "POSITION"}, {"bufferView" : 1, "byteOffset" : 12, "componentType" : 5126, "count" : 36, "type" : "VEC3", "max" : [1.0000044107437134, 1.0000044107437134, 1.0000044107437134], "min" : [-1.0000044107437134, -1.0000044107437134, -1.0000044107437134], "name" : "NORMAL"}, {"bufferView" : 1, "byteOffset" : 24, "componentType" : 5126, "count" : 36, "type" : "VEC4", "max" : [1.0000044107437134, 0, 1.0000044107437134, 1], "min" : [-0, 0, -1.0000044107437134, 1], "name" : "TANGENT"}, {"bufferView" : 1, "byteOffset" : 40, "componentType" : 5126, "count" : 36, "type" : "VEC2", "max" : [1, -0], "min" : [0, -1], "name" : "TEXCOORD_0"}, {"bufferView" : 1, "byteOffset" : 48, "componentType" : 5126, "count" : 36, "type" : "VEC2", "max" : [0.9966580867767334, -0.004055766388773918], "min" : [0.004055766388773918, -0.6528358459472656], "name" : "TEXCOORD_1"}], "asset" : {"generator" : "Aspose.3D 22.7", "version" : "2.0"}, "buffers" : [{"uri" : "data:application/octet-stream;base64,", "byteLength" : 2096}], "bufferViews" : [{"buffer" : 0, "byteOffset" : 0, "byteLength" : 72, "target" : 34963}, {"buffer" : 0, "byteOffset" : 76, "byteLength" : 2016, "byteStride" : 56, "target" : 34962}], "images" : [{"uri" : "C:\\Users\\haziq\\Linguistik V2\\Assets\\PNG\\YDPNS.png"}], "materials" : [{"name" : "YDPNS", "pbrMetallicRoughness" : {"baseColorFactor" : [1, 1, 1, 1], "baseColorTexture" : {"index" : 0, "texCoord" : 0}, "metallicFactor" : 0, "roughnessFactor" : 0}, "emissiveFactor" : [0, 0, 0], "alphaMode" : "OPAQUE", "doubleSided" : false}], "meshes" : [{"primitives" : [{"attributes" : {"POSITION" : 1, "NORMAL" : 2, "TANGENT" : 3, "TEXCOORD_0" : 4, "TEXCOORD_1" : 5}, "indices" : 0, "material" : 0, "mode" : 4}], "name" : "Scene"}], "nodes" : [{"matrix" : [-2, -2.4492935982947064E-16, 0, 0, 1.2246467991473532E-16, -1, 0, 0, 0, 0, 0.019999999552965206, 0, 0, 0, 0, 1], "mesh" : 0, "name" : "Cube"}], "samplers" : [{"magFilter" : 9729, "minFilter" : 9729, "wrapS" : 10497, "wrapT" : 10497}], "scene" : 0, "scenes" : [{"nodes" : [0]}], "textures" : [{"sampler" : 0, "source" : 0, "name" : "DiffuseColor_Texture"}]}